<?xml version="1.0" encoding="utf-8"?>
<!-- Generator: Adobe Illustrator 21.0.0, SVG Export Plug-In . SVG Version: 6.00 Build 0)  -->
<svg version="1.1" xmlns="http://www.w3.org/2000/svg" xmlns:xlink="http://www.w3.org/1999/xlink" x="0px" y="0px"
	 viewBox="0 0 2000 2000" style="enable-background:new 0 0 2000 2000;" xml:space="preserve">
<style type="text/css">
	.st0{fill:#2CA58F;}
	.st1{opacity:0.1;fill:#FFFFFF;}
	.st2{opacity:0.25;}
	.st3{fill:#581F1A;}
	.st4{fill:#E63A2A;}
	.st5{opacity:0.1;}
	.st6{fill:#FFFFFF;}
	.st7{fill:#A92B1F;}
	.st8{fill:#FAD902;}
	.st9{fill:#E77189;}
	.st10{fill:#FAD900;}
	.st11{fill:none;}
	.st12{fill:#9EC538;}
	.st13{opacity:0.2;}
</style>
<g id="Layer_1">
	<rect class="st0" width="2000" height="2000"/>
	<g>
		<circle class="st1" cx="1000" cy="1000" r="810.5"/>
	</g>
	<g class="st2">
		<path class="st3" d="M1628.1,1314.4c0.8-0.8,1.5-1.6,2.3-2.3c1.7-1.8,3.4-3.5,5-5.3c1.7-1.7,3.3-3.5,4.9-5.2
			c0.2-0.2,0.3-0.3,0.5-0.5c1.5-1.6,2.9-3.1,4.3-4.7c0.2-0.2,0.4-0.5,0.6-0.7c1.5-1.7,3-3.3,4.5-5l0,0c0,0,0,0,0.1-0.1
			c0,0,0.1-0.1,0.1-0.1c18.8-21.2,32.9-46.7,40.8-73.7c7.3-25.1,9.3-51.8,5.8-77.6c0-0.1,0-0.2,0-0.3c-0.2-1.5-0.4-3-0.7-4.5
			c-0.1-0.4-0.1-0.7-0.2-1.1c0-0.2-0.1-0.5-0.1-0.7c-0.3-1.4-0.5-2.9-0.8-4.3c0,0,0-0.1,0-0.1c0-0.2-0.1-0.5-0.1-0.7
			c-0.2-0.9-0.4-1.9-0.6-2.8c0-0.1,0-0.2-0.1-0.3c-3.6-16.3-9.1-31.1-16.6-44.3c0,0,0,0,0,0c-0.5-0.9-1.1-1.8-1.6-2.7
			c0,0-0.1-0.1-0.1-0.1c-0.5-0.9-1.1-1.7-1.6-2.6c0-0.1-0.1-0.2-0.1-0.2c-0.5-0.8-1.1-1.6-1.6-2.4c-0.1-0.1-0.1-0.2-0.2-0.3
			c-0.5-0.8-1.1-1.6-1.6-2.3c-0.1-0.1-0.2-0.3-0.3-0.4c-0.5-0.7-1.1-1.5-1.6-2.2c-0.1-0.2-0.2-0.3-0.3-0.5c-0.5-0.7-1.1-1.4-1.6-2.1
			c-0.1-0.2-0.3-0.3-0.4-0.5c-0.5-0.7-1.1-1.3-1.6-2c-0.2-0.2-0.3-0.4-0.5-0.6c-0.5-0.6-1.1-1.3-1.6-1.9c-0.2-0.2-0.4-0.4-0.5-0.6
			c-0.5-0.6-1.1-1.2-1.6-1.8c-0.2-0.2-0.4-0.4-0.6-0.6c-0.5-0.6-1.1-1.2-1.6-1.7c-0.2-0.2-0.4-0.4-0.6-0.7c-0.5-0.6-1.1-1.1-1.6-1.7
			c-0.2-0.2-0.5-0.5-0.7-0.7c-0.5-0.5-1.1-1.1-1.6-1.6c-0.2-0.2-0.5-0.4-0.7-0.7c-0.6-0.5-1.1-1.1-1.7-1.6c-0.2-0.2-0.4-0.4-0.7-0.6
			c-0.6-0.5-1.2-1.1-1.8-1.6c-0.2-0.1-0.3-0.3-0.5-0.4c-0.7-0.6-1.3-1.1-2-1.7c0,0,0,0,0,0c-1.7-1.4-3.4-2.7-5.1-4
			c-0.1-0.1-0.3-0.2-0.4-0.3c-0.7-0.5-1.4-1-2-1.5c-0.4-0.3-0.7-0.5-1.1-0.8c-0.5-0.3-1-0.7-1.5-1c-0.9-0.6-1.8-1.2-2.6-1.7
			c-0.5-0.3-0.9-0.6-1.4-0.9l-0.1,0c-0.5-0.3-0.9-0.6-1.4-0.9c-0.3-0.2-0.6-0.4-1-0.6c-0.1,0-0.2-0.1-0.2-0.1
			c-0.8-0.5-1.7-1-2.5-1.5c-0.5-0.3-0.9-0.5-1.4-0.8c-0.2-0.1-0.5-0.3-0.7-0.4c-0.9-0.5-1.9-1-2.9-1.5c-0.2-0.1-0.5-0.2-0.7-0.3
			l-0.1-0.1c0,0-0.1,0-0.1-0.1c-11.7-5.8-24.2-10-37.3-12.3l-4.6-0.9l-0.1,0.1c-5.2-0.7-10.4-1.2-15.7-1.4
			c-52.1-1.8-191.8-9.6-321.1-43.4c15.2-62,19.4-119.1,12.6-170.4c20.7-29.6,33-66.8,33-107.3c0-95.9-69.5-174-154.9-174
			c-38.9,0-74.5,16.2-101.7,42.9c-31.4-5.8-63.8-6-96-0.4c-0.9,0.1-1.7,0.3-2.6,0.5c-28.2-33.4-68.1-54.2-112.2-54.2
			c-85.4,0-154.9,78-154.9,174c0,63.5,30.5,119.2,75.9,149.6c0.2,2.3,0.5,4.7,0.8,7c6.4,52.3,27.6,91.5,62.9,116.4
			c31.4,22.1,68.1,28.9,97.9,30c-2.4,3.1-4.7,6.5-6.9,10.3c-2,3.3-3.4,6.7-4.4,10.2c-100.2,90.8-237.8,205.1-326,236.2
			c-0.1,0-0.2,0.1-0.3,0.1l-10.1,3.6l2.6,10.5c0,0,0,0,0,0.1c0.4,1.4,34.5,142.4-31.7,256.6c0,0,0,0.1-0.1,0.1l-6.4,11.1l11.6,5.6
			c0,0,0,0,0,0c0.2,0.1,8,3.8,21.8,9.9c15.3,6.7,37.9,16.3,66.1,27.1c0,0,0,0,0,0c2.4,0.9,4.8,1.8,7.2,2.7c0.1,0.1,0.3,0.1,0.4,0.2
			c3,1.1,6.1,2.3,9.2,3.4c22.3,8.3,47.5,17.1,74.7,25.7c52.1,16.5,103.1,29.7,151.8,39.2c-2,4.2-4,7.7-6,10.5
			c-2.9,3.9-3.2,9.3-0.6,13.4c2.6,4.2,7.4,6.4,12.3,5.5c1.8-0.3,31.1-5.5,60-18.7c20.9,2.8,41.3,4.8,61.1,6.1
			c9.3,9.6,18.2,21.2,24,34.2c1.8,4.1,5.8,6.9,10.4,7.1c0.2,0,0.4,0,0.6,0c4.3,0,8.3-2.3,10.4-6.1c0.7-1.2,7.4-13.2,15.3-33.7
			c11.3-0.2,22.4-0.6,33.2-1.3c0.2,0,0.3,0,0.5,0c1.5-0.1,3-0.2,4.6-0.3c0.7-0.1,1.4-0.1,2.1-0.2c0.9-0.1,1.9-0.2,2.8-0.3
			c0.9-0.1,1.8-0.2,2.7-0.3c0.6-0.1,1.3-0.1,1.9-0.2c12.4-1.4,24.7-3.6,36.8-6.4l-2.5,3.3l38.5-14.1c0,0,0,0,0,0c0,0,0,0,0,0l0,0
			c1.8-0.7,3.6-1.3,5.4-2l0.1,0c1.1-0.4,2.2-0.9,3.3-1.3c1.4-0.6,2.8-1.1,4.2-1.7c2.7-1.1,5.5-2.3,8.3-3.6c2.6-1.2,5.3-2.4,8.2-3.8
			c1.4-0.7,2.7-1.3,4-2c2.3-1.1,4.6-2.3,6.8-3.5c1.1-0.6,2.3-1.2,3.4-1.8c0.4-0.2,0.9-0.5,1.3-0.7l0.1-0.1c0,0,0.1,0,0.1,0
			c1.4-0.8,2.8-1.6,4.2-2.4c35.2-20.3,83.2-49.1,136-83.4c0.2-0.1,0.4-0.2,0.5-0.3c0.3-0.2,0.7-0.4,1-0.7c2.3-1.5,4.6-3,6.9-4.5
			c0.7-0.5,1.4-0.9,2.2-1.4c2-1.3,4.1-2.7,6.1-4c0.9-0.6,1.7-1.1,2.6-1.7c1.6-1.1,3.3-2.2,4.9-3.3c54.8-36.5,103.8-72.1,146.5-106.5
			c0.3-0.2,0.6-0.5,0.9-0.7c2-1.6,4-3.2,6-4.9c0.9-0.7,1.8-1.4,2.6-2.1c1.4-1.1,2.7-2.2,4.1-3.3c1.2-1,2.5-2,3.7-3.1
			c0.9-0.8,1.9-1.6,2.8-2.3c1.5-1.3,3-2.5,4.5-3.8c0.6-0.5,1.2-1,1.8-1.5c1.7-1.5,3.5-2.9,5.2-4.4c0.3-0.2,0.6-0.5,0.9-0.7
			c16.6-14.2,32.1-28.2,46.4-41.9c0,0,0,0,0.1-0.1c1.6-1.5,3.1-3,4.7-4.5c0.3-0.3,0.6-0.6,0.9-0.8c1.4-1.4,2.8-2.7,4.2-4.1
			c0.4-0.4,0.9-0.8,1.3-1.3c1.3-1.3,2.5-2.5,3.8-3.8c0.6-0.6,1.1-1.1,1.7-1.7c1.1-1.1,2.2-2.2,3.3-3.3
			C1626.4,1316.2,1627.2,1315.3,1628.1,1314.4z M1133.2,541.3c72.2,0,130.9,67.3,130.9,150c0,25.9-5.7,50.2-15.8,71.5
			c-16.6-65.7-56.6-122.4-113.3-160.4c-23.4-15.7-48.6-27.5-74.9-35.3C1080.9,550.8,1106.1,541.3,1133.2,541.3z M689.9,680
			c0-82.7,58.7-150,130.9-150c32.7,0,62.7,13.8,85.7,36.7c-37.1,11.3-69.2,31.3-95.5,59.8c-23.9,25.7-42.6,57.6-55.7,94.8
			c-8.7,24.9-13.6,51.1-14.3,77.3C709.9,771.3,689.9,728.3,689.9,680z"/>
		<path class="st3" d="M514.8,1039.8c-4.6-7.8-9.8-19.3-10.8-33h23.5c48.9,0,88.7-39.8,88.7-88.7V783c0-48.9-39.8-88.7-88.7-88.7
			H286.1c-48.9,0-88.7,39.8-88.7,88.7v135c0,48.9,39.8,88.7,88.7,88.7h134.2c13,18.3,37.1,46.1,71,60.1c2.3,1,4.8,1.4,7.2,1.4
			c5.4,0,10.6-2.3,14.3-6.5c0.1-0.2,0.3-0.3,0.4-0.5c1.1,0.2,2.2,0.5,3.3,0.7c0,0,0,0,0,0c0,0,0,0,0,0c0,0-0.8-0.8-2.1-2.3
			C518.2,1053.7,518.5,1046,514.8,1039.8z"/>
		<path class="st3" d="M1479.8,643.9c0.7,0.2,71.8,18.3,71.8,134.1c0,7.9,6.4,14.3,14.3,14.3s14.3-6.4,14.3-14.3
			c0-47.8,12.5-86.2,36.1-110.9c17.2-18,34.7-22.9,35.8-23.2c6.9-1.6,11.6-7.9,11-15c-0.5-7.1-6.4-12.7-13.5-13.2
			c-24.9-1.6-44-15.9-56.8-42.6c-10.4-21.7-12.6-43.5-12.7-43.8c-0.7-7.3-6.9-13-14.2-13c-7.4,0-13.6,5.6-14.3,13
			c-0.1,0.8-8.4,82.4-69.5,86.3c-7.1,0.4-12.8,6-13.4,13.1C1468.2,635.8,1472.9,642.2,1479.8,643.9z"/>
		<path class="st3" d="M427.9,1185.5c-14-0.9-24.4-8.7-31.7-23.9c-6.1-12.7-7.4-25.5-7.5-25.7c-0.6-6.1-5.7-10.8-11.9-10.8
			c0,0,0,0,0,0c-6.2,0-11.3,4.7-11.9,10.8c0,0.1-1.3,13-7.5,25.7c-7.3,15.2-17.7,23-31.7,23.9c-6,0.4-10.9,5.1-11.3,11.1
			c-0.4,6,3.4,11.3,9.3,12.6c2.5,0.7,41.2,12.3,41.2,78.4c0,6.6,5.4,12,12,12s12-5.4,12-12c0-66.1,38.7-77.7,41.2-78.4
			c5.8-1.3,9.7-6.6,9.3-12.6C438.8,1190.6,433.9,1185.9,427.9,1185.5z"/>
		<path class="st3" d="M1790.6,1495.4c-0.5-6-5.3-10.7-11.3-11c-19.2-1.2-34-12.3-43.9-32.9c-8.1-16.9-9.8-33.8-9.9-34.1
			c-0.6-6.1-5.7-10.8-11.9-10.9c0,0,0,0,0,0c-6.2,0-11.3,4.7-11.9,10.8c0,0.2-1.7,17.2-9.9,34.1c-9.9,20.6-24.7,31.7-43.9,32.9
			c-5.9,0.4-10.7,5-11.2,11c-0.5,5.9,3.4,11.3,9.2,12.7c0.6,0.1,55.7,14.2,55.7,104.3c0,6.6,5.4,12,12,12s12-5.4,12-12
			c0-88.5,52.7-103.6,55.7-104.3C1787.2,1506.7,1791.1,1501.3,1790.6,1495.4z"/>
	</g>
</g>
<g id="Layer_2">
	<g>
		<path d="M1008,1137.8c-20.2,0-36.9-2.2-49.8-4.8c-31.1-6.4-47.5-16.9-47.7-17.1l0.6-1c0.2,0.1,16.5,10.6,47.4,16.9
			c28.5,5.8,75.5,9.2,137.9-7.7l0.3,1.1C1062.3,1134.6,1032.5,1137.8,1008,1137.8z"/>
	</g>
	<g>
		<path class="st4" d="M972.8,890.2c-91.1,87.9-298.6,279.5-419.3,321.9c0,0,36.4,145.8-33,265.5c0,0,292.4,141.3,545.8,124.3
			c46.3-3.1,91.2-16.8,131.4-40c97.4-56.2,310.8-187.2,427.3-318.3c35.8-40.3,52-94.7,42.7-147.8c-5.4-31-19.2-63-49.7-85.8
			c-20.6-15.4-45.6-23.7-71.3-24.5c-73.8-2.5-333.2-17.5-482.2-105.9C1035.1,862,997.5,866.3,972.8,890.2z"/>
	</g>
	<g class="st5">
		<path class="st6" d="M1307.2,1076.6c-88.3,89.1-288.6,228.8-596.1,95.2c0,0,174.7-103.4,262.4-194.8
			c27.3-28.5,69.2-37.5,105.9-23.2c56.1,21.9,137.9,50.3,206.7,59.8C1316.3,1017.8,1328.7,1054.9,1307.2,1076.6z"/>
	</g>
	<g class="st5">
		<path class="st3" d="M1625.1,1243.6c-116.5,131-329.9,262.1-427.3,318.3c-40.2,23.2-85.1,36.9-131.4,40
			c-253.4,17-545.8-124.3-545.8-124.3c69.4-119.7,33-265.5,33-265.5c21.5-7.6,45.8-19.9,71.8-35.5c69.1,45.4,148.9,70.4,223,83.7
			c178.1,32,360.2-28.2,485.4-158.8c42.7-44.6,78.8-89.2,104.7-123.3c47.5,4.6,86.3,6.5,108.3,7.3c25.7,0.9,50.7,9.2,71.3,24.5
			c30.5,22.8,44.3,54.7,49.7,85.8C1677.1,1148.9,1660.9,1203.3,1625.1,1243.6z"/>
	</g>
	<g>
		<path class="st6" d="M1199.1,1466.4c0,0.5,0,1.1,0,1.6c-0.1,3.2-0.3,6.4-0.7,9.7c-0.4,3.9-1,7.8-1.8,11.8c-0.2,1-0.4,2.1-0.6,3.1
			c0,0.1-0.1,0.2-0.1,0.4c-0.4,1.7-0.8,3.5-1.2,5.3c-0.2,0.6-0.3,1.2-0.5,1.8c-0.5,1.8-1,3.6-1.5,5.4c-0.5,1.8-1.1,3.6-1.7,5.4
			c-0.2,0.6-0.4,1.3-0.7,1.9c-0.6,1.9-1.3,3.7-2,5.6c0,0,0,0,0,0c-0.5,1.2-1,2.5-1.5,3.8c-0.4,1-0.8,2-1.3,3
			c-0.1,0.3-0.3,0.6-0.4,0.9c-0.3,0.6-0.5,1.2-0.8,1.9c-0.6,1.3-1.2,2.6-1.8,3.9c-0.3,0.6-0.6,1.3-0.9,2c-0.6,1.3-1.3,2.6-1.9,4
			c-1,2-2,4-3.1,6c-0.4,0.7-0.7,1.4-1.1,2c-0.4,0.7-0.8,1.4-1.1,2c-0.4,0.7-0.8,1.4-1.2,2c-0.4,0.7-0.8,1.4-1.2,2.1
			c-0.4,0.7-0.8,1.4-1.2,2.1c-0.8,1.4-1.7,2.8-2.5,4.2c-0.4,0.7-0.9,1.4-1.3,2.1c-0.9,1.5-1.9,3-2.8,4.4c-0.4,0.6-0.8,1.3-1.3,1.9
			c-1.4,2.1-2.9,4.3-4.4,6.5c-2.5,3.6-5.2,7.3-8,11c-26.9,9.9-55.2,15.9-83.9,17.8c-253.4,17-545.8-124.3-545.8-124.3
			c69.4-119.7,33-265.5,33-265.5c300.2,180.5,563.4,126.7,563.4,126.7s21.2,10.4,42.1,31.6c0.6,0.7,1.3,1.3,1.9,2
			c0.3,0.3,0.6,0.7,1,1c0.6,0.7,1.3,1.4,1.9,2.1c0.6,0.7,1.3,1.4,1.9,2.2c0.6,0.7,1.3,1.5,1.9,2.2c0.3,0.4,0.6,0.7,0.9,1.1
			c3.1,3.8,6.1,7.8,9,12.1c0.9,1.3,1.7,2.6,2.5,3.9c3.3,5.4,6.4,11.1,9,17.2c0.6,1.5,1.3,3.1,1.9,4.7
			C1196.3,1432.9,1199.5,1448.7,1199.1,1466.4z"/>
	</g>
	<g class="st5">
		<path class="st3" d="M1199.1,1466.4c0,0.5,0,1.1,0,1.6c-0.1,3.2-0.4,6.4-0.7,9.7c-0.4,3.9-1,7.8-1.8,11.8c-0.2,1-0.4,2.1-0.6,3.1
			c0,0.1-0.1,0.3-0.1,0.4c-0.4,1.7-0.8,3.5-1.2,5.3c-0.2,0.6-0.3,1.2-0.5,1.8c-0.5,1.8-1,3.6-1.5,5.4c-0.5,1.8-1.1,3.6-1.7,5.4
			c-0.2,0.6-0.4,1.3-0.7,1.9c-0.7,1.8-1.3,3.7-2.1,5.6c0,0,0,0,0,0c-0.5,1.3-1,2.5-1.5,3.8c-0.4,1-0.8,2-1.3,3
			c-0.1,0.3-0.3,0.6-0.4,0.9c-0.3,0.6-0.5,1.2-0.8,1.9c-0.6,1.3-1.2,2.6-1.8,3.9c-0.3,0.6-0.6,1.3-0.9,2c-0.6,1.3-1.3,2.6-1.9,4
			c-1,2-2,4-3.1,6c-0.4,0.7-0.7,1.3-1.1,2c-0.4,0.7-0.8,1.4-1.1,2c-0.4,0.7-0.8,1.4-1.2,2c-0.4,0.7-0.8,1.4-1.2,2.1
			c-0.4,0.7-0.8,1.4-1.2,2.1c-0.8,1.4-1.7,2.8-2.5,4.2c-0.4,0.7-0.9,1.4-1.3,2.1c-0.9,1.5-1.9,3-2.8,4.5c-0.4,0.6-0.9,1.3-1.3,1.9
			c-1.4,2.1-2.9,4.3-4.4,6.5c-2.5,3.6-5.2,7.3-8,11c-26.9,9.9-55.2,15.9-83.9,17.8c-253.4,17-545.8-124.3-545.8-124.3
			c7.4-12.8,13.6-25.8,18.8-38.9c91.2,38.2,307.8,117.7,501.6,104.7c24.3-1.6,48.1-6.2,71.2-13.4c8.4-2.6,15.7-8,20.7-15.2
			c0,0,0.1-0.1,0.1-0.1c1.5-2.2,3-4.3,4.4-6.5c0.4-0.6,0.8-1.3,1.3-1.9c1-1.5,1.9-3,2.8-4.4c0.5-0.7,0.9-1.4,1.3-2.1
			c0.9-1.4,1.7-2.8,2.5-4.2c0.4-0.7,0.8-1.4,1.2-2.1c0.4-0.7,0.8-1.4,1.2-2.1c0.4-0.7,0.8-1.4,1.2-2c0.4-0.7,0.8-1.3,1.1-2
			c0.4-0.7,0.7-1.3,1.1-2c1.1-2,2.1-4,3.1-6c0.7-1.3,1.3-2.7,1.9-4c0.3-0.7,0.6-1.3,0.9-2c0.6-1.3,1.2-2.6,1.8-3.9
			c0.3-0.6,0.6-1.3,0.8-1.9c0.1-0.3,0.3-0.6,0.4-0.9c0.4-1,0.8-2,1.3-3c0.5-1.3,1-2.5,1.5-3.8c0,0,0,0,0,0c0.7-1.9,1.4-3.8,2.1-5.6
			c0.2-0.7,0.4-1.3,0.7-1.9c0.6-1.8,1.2-3.6,1.7-5.4c0.5-1.8,1-3.6,1.5-5.4c0.2-0.6,0.3-1.2,0.5-1.8c0.4-1.8,0.8-3.5,1.2-5.3
			c0-0.1,0-0.3,0.1-0.4c0.2-1.1,0.4-2.1,0.6-3.1c0.8-4,1.4-8,1.8-11.8c0.4-3.3,0.6-6.6,0.7-9.7c0-0.5,0-1.1,0.1-1.6
			c0.2-7.8-0.3-15.2-1.4-22.3c1.8,2.4,3.6,4.9,5.4,7.5c0.9,1.3,1.7,2.6,2.5,3.9c3.3,5.4,6.3,11.1,9,17.2c0.6,1.5,1.3,3.1,1.9,4.6
			C1196.3,1432.9,1199.5,1448.7,1199.1,1466.4z"/>
	</g>
	<g>
		<path class="st7" d="M1624.9,1243.8c-4.7,5.3-9.6,10.6-14.6,15.8c-12.4,13.1-25.8,26.2-39.8,39.2c-71,65.9-159.2,129-236.8,179.6
			c-23.2,15.1-45.5,29.1-66,41.8c-26.7,16.4-50.6,30.5-69.9,41.6c-1.4,0.8-2.8,1.6-4.1,2.3c-1.1,0.6-2.3,1.3-3.4,1.9
			c-2.5,1.4-5.1,2.7-7.7,4c-1.3,0.6-2.6,1.3-3.9,1.9c-2.6,1.3-5.2,2.5-7.8,3.7c-2.6,1.2-5.3,2.3-8,3.5c-1.3,0.6-2.7,1.1-4,1.6
			c-1.1,0.5-2.2,0.9-3.4,1.3c-1.7,0.7-3.4,1.3-5.2,2c2.8-3.7,5.5-7.4,8-11c1.5-2.2,3-4.3,4.4-6.5c0.4-0.6,0.8-1.3,1.3-1.9
			c1-1.5,1.9-3,2.8-4.4c0.5-0.7,0.9-1.4,1.3-2.1c0.9-1.4,1.7-2.8,2.5-4.2c0.4-0.7,0.8-1.4,1.2-2.1c0.4-0.7,0.8-1.4,1.2-2.1
			c0.4-0.7,0.8-1.4,1.2-2c0.4-0.7,0.8-1.4,1.1-2c0.4-0.7,0.7-1.4,1.1-2c1.1-2,2.1-4,3.1-6c0.7-1.3,1.3-2.6,1.9-4
			c0.3-0.7,0.6-1.3,0.9-2c0.6-1.3,1.2-2.6,1.8-3.9c0.3-0.6,0.5-1.2,0.8-1.9c0.1-0.3,0.3-0.6,0.4-0.9c0.4-1,0.9-2,1.3-3
			c0.5-1.3,1-2.5,1.5-3.8c0,0,0,0,0,0c0.7-1.9,1.4-3.8,2-5.6c0.2-0.6,0.5-1.3,0.7-1.9c0.6-1.8,1.2-3.6,1.7-5.4
			c0.5-1.8,1-3.6,1.5-5.4c0.2-0.6,0.3-1.2,0.5-1.8c0.4-1.8,0.9-3.5,1.2-5.3c0-0.1,0-0.3,0.1-0.4c0.2-1,0.4-2.1,0.6-3.1
			c0.8-4,1.4-8,1.8-11.8c0.4-3.3,0.6-6.5,0.7-9.7c0-0.5,0-1.1,0-1.6c0.4-17.7-2.8-33.5-8.1-47.5c-0.6-1.6-1.2-3.1-1.9-4.7
			c-2.6-6.1-5.7-11.8-9-17.2c-0.8-1.3-1.7-2.6-2.5-3.9c-2.9-4.3-5.9-8.3-9-12.1c-0.3-0.4-0.6-0.8-0.9-1.1c-0.6-0.8-1.2-1.5-1.9-2.2
			c-0.6-0.7-1.3-1.4-1.9-2.2c-0.6-0.7-1.3-1.4-1.9-2.1c-0.3-0.3-0.6-0.7-1-1c-0.6-0.7-1.3-1.3-1.9-2c-20.9-21.2-42.1-31.6-42.1-31.6
			c7.5-3.4,14.9-7,22.3-10.7c1.5-0.7,3-1.5,4.4-2.2c1.5-0.7,2.9-1.5,4.4-2.2c4.5-2.3,8.9-4.6,13.4-7c1.5-0.8,3-1.6,4.4-2.4
			c2.9-1.6,5.9-3.2,8.8-4.8c13.2-7.3,26.3-15.1,39.3-23.1c1.4-0.9,2.9-1.8,4.3-2.7c1.4-0.9,2.9-1.8,4.3-2.7c2.9-1.8,5.7-3.6,8.6-5.5
			c1.4-0.9,2.9-1.8,4.3-2.8c5.7-3.7,11.4-7.4,17.1-11.2c1.4-0.9,2.8-1.9,4.2-2.8c0.6-0.4,1.2-0.8,1.7-1.2c2.3-1.6,4.6-3.1,6.9-4.7
			c1.3-0.9,2.6-1.8,4-2.8c5.6-3.9,11.1-7.8,16.7-11.8c1.4-1,2.8-2,4.1-3c8.2-6,16.4-12,24.5-18.1c1.3-1,2.7-2,4-3
			c6.2-4.7,12.4-9.5,18.6-14.3c1.7-1.4,3.5-2.7,5.2-4.1c9.2-7.2,18.2-14.5,27-21.8c2.5-2.1,5-4.1,7.5-6.2
			c11.2-9.3,22.2-18.7,32.9-28c1.2-1,2.4-2.1,3.5-3.1s2.3-2.1,3.5-3.1c2.3-2.1,4.7-4.1,7-6.2c1.1-1,2.3-2,3.4-3.1
			c8-7.1,15.8-14.2,23.5-21.2c1.9-1.8,3.9-3.6,5.8-5.3c3.4-3.2,6.8-6.4,10.2-9.5c1-1,2.1-2,3.1-2.9c3.1-2.9,6.2-5.8,9.2-8.7
			c2.9-2.8,5.8-5.6,8.7-8.3c1.1-1,2.1-2,3.2-3.1c1.9-1.9,3.9-3.7,5.7-5.6c3.8-3.7,7.5-7.3,11.1-10.9c0.3-0.3,0.6-0.6,0.9-0.9
			c2.1-2.1,4.1-4.1,6.2-6.1c1.2-1.2,2.4-2.4,3.5-3.5c1.7-1.7,3.4-3.4,5.1-5.1c0.8-0.8,1.7-1.7,2.5-2.5c2.5-2.5,4.9-5,7.3-7.5
			c0.8-0.8,1.6-1.6,2.4-2.4c11.8-12.1,22.4-23.2,31.5-32.9c5.7,1.1,11.3,2.6,16.9,4.5c3.3,1.1,6.5,2.4,9.7,3.8c0,0,0,0,0,0
			c1.1,0.5,2.1,0.9,3.1,1.4c0.9,0.4,1.8,0.8,2.6,1.3c0.3,0.2,0.7,0.3,1,0.5c0.6,0.3,1.2,0.6,1.8,0.9c0.4,0.2,0.8,0.4,1.2,0.6
			c0.8,0.4,1.5,0.8,2.3,1.3c0.5,0.3,1,0.6,1.6,0.9c0.3,0.1,0.5,0.3,0.8,0.5c0.5,0.3,1,0.6,1.6,0.9c1.5,0.9,3,1.9,4.4,2.9
			c0.5,0.3,1,0.7,1.5,1c0.8,0.5,1.5,1.1,2.3,1.6c29.1,21.8,43,51.9,48.9,81.6C1677.8,1146,1661.8,1202.4,1624.9,1243.8z"/>
	</g>
	<g class="st5">
		<path class="st3" d="M1624.9,1243.8c-4.7,5.3-9.6,10.6-14.6,15.8c-12.4,13.1-25.8,26.2-39.8,39.2c-71,65.9-159.3,129-236.8,179.6
			c-23.2,15.1-45.5,29.1-66,41.8c-26.8,16.4-50.6,30.5-69.9,41.6c-1.4,0.8-2.8,1.6-4.1,2.3c-1.1,0.6-2.3,1.3-3.4,1.9
			c-2.6,1.4-5.1,2.7-7.7,4c-1.3,0.7-2.6,1.3-3.9,1.9c-2.6,1.3-5.2,2.5-7.8,3.7c-2.6,1.2-5.3,2.3-8,3.5c-1.3,0.6-2.7,1.1-4,1.6
			c-1.1,0.4-2.2,0.9-3.4,1.3c-1.7,0.7-3.4,1.3-5.2,2c2.8-3.7,5.5-7.4,8-11c1.5-2.2,3-4.3,4.4-6.5c0.4-0.6,0.8-1.3,1.3-1.9
			c1-1.5,1.9-3,2.8-4.5c0.5-0.7,0.9-1.4,1.3-2.1c0.9-1.4,1.7-2.8,2.5-4.2c0.4-0.7,0.8-1.4,1.2-2.1c0.4-0.7,0.8-1.4,1.2-2.1
			c0.4-0.7,0.8-1.4,1.2-2c0.4-0.7,0.8-1.4,1.1-2c0.4-0.7,0.7-1.3,1.1-2c1.1-2,2.1-4,3.1-6c0.7-1.3,1.3-2.7,1.9-4
			c0.3-0.7,0.6-1.3,0.9-2c0.6-1.3,1.2-2.6,1.8-3.9c0.3-0.6,0.6-1.3,0.8-1.9c0.1-0.3,0.3-0.6,0.4-0.9c0.4-1,0.9-2,1.3-3
			c0.5-1.3,1-2.5,1.5-3.8c0,0,0,0,0,0c0.7-1.9,1.4-3.8,2.1-5.6c0.2-0.7,0.4-1.3,0.7-1.9c0.6-1.8,1.2-3.6,1.7-5.4
			c0.5-1.8,1-3.6,1.5-5.4c0.2-0.6,0.3-1.2,0.5-1.8c0.4-1.8,0.8-3.5,1.2-5.3c0-0.1,0-0.3,0.1-0.4c0.2-0.9,0.4-1.8,0.5-2.7
			c13.5-8,28.4-16.9,44.3-26.7c20.6-12.6,42.8-26.6,66-41.8c77.6-50.6,165.8-113.7,236.8-179.6c14-13,27.3-26.1,39.8-39.2
			c5-5.3,9.9-10.6,14.6-15.8c36.9-41.4,52.9-97.8,42.1-152.2c-0.3-1.6-0.6-3.1-1-4.7c15.3,18.6,23.8,40.2,28,61.7
			C1677.8,1146,1661.8,1202.4,1624.9,1243.8z"/>
	</g>
	<g>
		<path class="st8" d="M1333.8,1478.5c-23.2,15.1-45.5,29.1-66,41.8c61.3-149.4-53.7-233.9-53.7-233.9c1.4-0.9,2.9-1.8,4.3-2.7
			c1.4-0.9,2.9-1.8,4.3-2.7c2.9-1.8,5.7-3.6,8.6-5.5c1.4-0.9,2.9-1.8,4.3-2.8c5.7-3.7,11.4-7.4,17.1-11.2c1.4-0.9,2.8-1.9,4.2-2.8
			c0.6-0.4,1.2-0.8,1.7-1.2C1336.2,1311.1,1338.5,1421.3,1333.8,1478.5z"/>
	</g>
	<g>
		<path class="st8" d="M1610.4,1259.6c-12.4,13.1-25.8,26.2-39.8,39.2c24.6-183.4-82.8-230.5-82.8-230.5c1.1-1,2.1-2,3.2-3.1
			c1.9-1.9,3.9-3.7,5.7-5.6c3.8-3.7,7.5-7.3,11.1-10.9c0.3-0.3,0.6-0.6,0.9-0.9C1606,1077.4,1614.8,1190.2,1610.4,1259.6z"/>
	</g>
	<g>
		<path class="st9" d="M511.2,667.3H269.8c-42.4,0-76.7,34.4-76.7,76.7v135c0,42.4,34.4,76.7,76.7,76.7h140.5
			c13.2,19.8,44.2,58.5,89.9,67.3c0,0-28-27.4-24.5-67.3h35.5c42.4,0,76.7-34.4,76.7-76.7v-135C587.9,701.7,553.6,667.3,511.2,667.3
			z"/>
	</g>
	<g class="st5">
		<path class="st6" d="M444.5,862.8H276.3c-27,0-48.9-21.9-48.9-48.9v-66c0-27,21.9-48.9,48.9-48.9h168.2c27,0,48.9,21.9,48.9,48.9
			v66C493.4,840.9,471.5,862.8,444.5,862.8z"/>
	</g>
	<g class="st5">
		<path class="st3" d="M587.9,744.1v135c0,42.4-34.4,76.7-76.7,76.7h-35.5c-3.5,39.9,24.5,67.3,24.5,67.3
			c-45.7-8.7-76.7-47.5-89.9-67.3H269.8c-32.7,0-60.6-20.5-71.7-49.3H476c30.4,0,55-24.6,55-55V669.9
			C563.8,678.7,587.9,708.6,587.9,744.1z"/>
	</g>
	<g>
		<path class="st6" d="M392.8,742.1c-1.5,1.1-2.3,1.6-2.3,1.6s-0.9-0.5-2.3-1.6c-55.5-44.4-120.6,11.1-94.7,73.2
			c11.7,28,38.8,58.5,97.1,81.7c58.3-23.2,85.4-53.7,97.1-81.7C513.4,753.3,448.9,701.4,392.8,742.1z"/>
	</g>
	<g class="st5">
		<path class="st3" d="M487.5,815.3c-11.7,28-38.8,58.5-97,81.7c-58.3-23.3-85.4-53.7-97.1-81.7c-4.8-11.5-6.5-22.7-5.7-33.2
			c13.9,24.8,41,50.5,91.7,70.8c58.3-23.2,85.4-53.7,97-81.7c2.8-6.7,4.5-13.3,5.3-19.7C493.9,767.8,497.8,790.8,487.5,815.3z"/>
	</g>
	<g>
		<path class="st10" d="M360.4,1098.2c0,0-5.4,57.5-50.4,60.4c0,0,50.4,11.9,50.4,90.1c0-78.1,50.4-90.1,50.4-90.1
			C365.8,1155.7,360.4,1098.2,360.4,1098.2z"/>
	</g>
	<g class="st5">
		<path class="st3" d="M410.8,1158.6c0,0-50.4,11.9-50.4,90.1c0-25.5-5.4-44-12.6-57.3c6.8-26.5,20.7-40.7,31.5-47.9
			C386.6,1151.5,396.8,1157.7,410.8,1158.6z"/>
	</g>
	<g>
		<path class="st3" d="M1023.2,1615.3c-46.9,0-97.5-4.6-151-13.8c-56.3-9.7-116-24.5-177.3-43.9c-104.4-33.1-178.7-68.8-179.5-69.1
			l-11.7-5.6l6.5-11.2c66.2-114.2,32.1-255.2,31.7-256.6l-2.7-10.6l10.3-3.6c119.5-42,330-237.3,414.9-319.3v0
			c28.5-27.5,72.2-32.6,106.3-12.3c146,86.7,401.6,101.7,476.5,104.2c28.8,1,55.8,10.3,78,26.9c29.1,21.7,47.3,53.1,54.3,93.3
			c4.8,27.7,3.2,56.8-4.8,84.1c-7.9,27.1-22,52.6-40.8,73.7c-51.3,57.7-126.3,121.3-222.9,189.1c-79.5,55.8-156.7,102.4-207.4,131.6
			c-41.6,24-88.8,38.4-136.6,41.6C1052.9,1614.8,1038.2,1615.3,1023.2,1615.3z M537.3,1472.1c24.5,11.1,86,37.6,165.2,62.7
			c94.5,29.9,234.2,63.7,363.2,55.1c44.2-3,87.8-16.3,126.2-38.4c88.7-51.2,307.5-184.4,424.3-315.9c33.9-38.2,48.5-88.4,39.9-137.8
			c-5.9-34-21.1-60.3-45.1-78.2c-18.3-13.7-40.6-21.4-64.5-22.2c-76.3-2.6-337-18-487.9-107.6c-24.8-14.7-56.7-11.1-77.4,9
			c-48.2,46.5-121.8,115.2-199.3,178.7c-89.4,73.3-161.5,121.1-214.5,142.2c2.8,14.7,7.3,43.7,7.7,80.2
			C575.5,1345.4,569,1411.1,537.3,1472.1z"/>
	</g>
	<g>
		<path class="st3" d="M1023.1,1615.3c-46.9,0-97.5-4.6-151-13.8c-56.3-9.7-116-24.5-177.3-43.9c-104.4-33.1-178.7-68.8-179.5-69.1
			c-3-1.5-5.3-4.1-6.3-7.3s-0.6-6.6,1.1-9.5c66.2-114.2,32.1-255.2,31.7-256.6c-1.2-4.7,0.6-9.7,4.5-12.6c3.9-2.9,9.2-3.1,13.3-0.6
			c153.1,92,296.1,121.1,389.1,129.3c100.4,8.9,165-4,165.6-4.1c2.6-0.5,5.3-0.2,7.7,1c0.9,0.5,23.3,11.5,45.4,34
			c0.7,0.7,1.3,1.4,2,2.1c0,0,0.1,0.1,0.1,0.1c0.3,0.3,0.5,0.6,0.8,0.9c0,0,0.1,0.1,0.1,0.1c0.7,0.7,1.4,1.5,2.1,2.2
			c0.7,0.7,1.3,1.5,2,2.3c0,0,0.1,0.1,0.1,0.1l0.5,0.6c0.5,0.6,1,1.2,1.5,1.8c0.3,0.3,0.7,0.8,1,1.2c3.5,4.2,6.8,8.6,9.7,13.1
			c0.9,1.4,1.8,2.8,2.7,4.2c3.8,6.1,7.1,12.5,9.8,18.8c0.8,1.9,1.5,3.5,2.1,5c6.4,16.6,9.4,34.1,9,52.1l-12-0.3l12,0.3l-12-0.3
			l12,0.3c0,0.6,0,1.2-0.1,1.8c-0.1,3.4-0.4,7-0.8,10.5c-0.5,4.4-1.1,8.6-1.9,12.8c-0.2,1.1-0.4,2.2-0.7,3.3c0,0.1,0,0.2-0.1,0.3
			c0,0.1,0,0.1,0,0.2c-0.4,1.8-0.8,3.7-1.3,5.6c-0.2,0.7-0.3,1.4-0.5,2c-0.6,2.2-1.1,4-1.6,5.7c-0.6,2.1-1.2,4-1.8,5.8
			c-0.2,0.6-0.5,1.4-0.7,2.1c-0.7,1.9-1.4,3.8-2.1,5.7c0,0.1,0,0.1-0.1,0.2c-0.5,1.3-1,2.7-1.6,4c-0.5,1.1-0.9,2.1-1.3,3.2
			c0,0.1-0.1,0.1-0.1,0.2c-0.1,0.2-0.2,0.5-0.3,0.7c0,0,0,0.1-0.1,0.1l-0.3,0.6c-0.2,0.5-0.4,0.9-0.6,1.4c-0.6,1.3-1.2,2.7-1.9,4.1
			c-0.3,0.6-0.6,1.2-0.9,1.9l-0.1,0.1c-0.7,1.4-1.3,2.8-2,4.1c-1.3,2.5-2.3,4.5-3.3,6.4c-0.4,0.7-0.8,1.4-1.2,2.1
			c-0.4,0.7-0.8,1.4-1.2,2.2c-0.4,0.7-0.8,1.4-1.2,2.1l-1.2,2.1c-0.5,0.8-0.9,1.5-1.3,2.3c-0.8,1.4-1.7,2.8-2.6,4.3l-0.3,0.4
			c-0.4,0.6-0.8,1.2-1.2,1.9c-0.9,1.4-1.9,3-2.9,4.5c0,0.1-0.1,0.1-0.1,0.2l-1.2,1.8c-1.5,2.2-3,4.5-4.6,6.8
			c-2.6,3.7-5.4,7.5-8.2,11.3c-1.4,1.8-3.3,3.2-5.4,4c-28.1,10.3-57.4,16.5-87.3,18.5C1052.9,1614.8,1038.2,1615.3,1023.1,1615.3z
			 M537.3,1472.1c24.5,11.1,86,37.6,165.2,62.7c94.5,29.9,234.2,63.8,363.1,55.1c26.4-1.8,52.4-7.1,77.3-15.9
			c1.9-2.6,3.8-5.2,5.6-7.8c1.5-2.1,2.9-4.2,4.2-6.2c0,0,0-0.1,0.1-0.1l1.2-1.8c0.9-1.4,1.8-2.8,2.7-4.2c0.4-0.6,0.7-1.1,1-1.7
			l0.2-0.4c0.8-1.3,1.6-2.6,2.4-4c0.4-0.7,0.8-1.3,1.2-2l1.1-2c0.4-0.6,0.7-1.3,1.1-1.9c0.4-0.7,0.7-1.3,1.1-1.9
			c0.4-0.7,0.7-1.3,1.1-2c0.9-1.7,1.8-3.5,3-5.8c0.6-1.2,1.2-2.5,1.8-3.7l0-0.1c0.3-0.6,0.6-1.2,0.8-1.8c0.6-1.3,1.1-2.5,1.7-3.7
			c0.2-0.4,0.4-0.8,0.5-1.2l0.3-0.6c0.1-0.3,0.3-0.6,0.4-0.9c0.4-1,0.8-1.9,1.2-2.9c0.4-1,0.9-2.2,1.3-3.3c0-0.1,0-0.1,0.1-0.2
			c0.7-1.7,1.3-3.5,1.9-5.3c0.2-0.6,0.4-1.1,0.6-1.7c0.5-1.6,1.1-3.3,1.6-5.2c0.4-1.5,0.9-3.1,1.4-5c0.2-0.6,0.3-1.1,0.4-1.7
			c0.4-1.6,0.8-3.2,1.1-4.7c0-0.2,0.1-0.5,0.2-0.7c0.2-0.9,0.4-1.7,0.5-2.6c0.7-3.6,1.2-7.2,1.6-10.9c0.3-2.9,0.5-5.9,0.6-8.8
			c0-0.5,0-1,0-1.4c0,0,0,0,0-0.1c0.4-14.9-2.1-29.3-7.3-42.9c-0.5-1.3-1.1-2.7-1.7-4.3c-2.3-5.2-5-10.5-8.2-15.6
			c-0.7-1.2-1.5-2.4-2.3-3.6c-2.5-3.7-5.3-7.5-8.3-11.1c-0.3-0.4-0.6-0.7-0.8-1c-0.5-0.6-0.9-1-1.3-1.5l-0.5-0.6
			c-0.6-0.7-1.2-1.3-1.7-2c-0.6-0.6-1.1-1.3-1.7-1.9c-0.3-0.3-0.6-0.7-1-1c-0.6-0.6-1.2-1.2-1.8-1.8c-14.5-14.8-29.1-23.8-35.5-27.4
			c-16.5,2.8-78.1,11.7-168.2,3.7c-60.8-5.4-122.1-17.3-182-35.6c-66.8-20.3-132.1-48.5-194.6-83.8c2.4,15.9,4.7,38.1,4.9,64.2
			C575.5,1345.4,569,1411.1,537.3,1472.1z M1207.4,1496.1C1207.4,1496.1,1207.4,1496.1,1207.4,1496.1
			C1207.4,1496.1,1207.4,1496.1,1207.4,1496.1z M1207.4,1496.1C1207.4,1496.1,1207.4,1496.1,1207.4,1496.1
			C1207.4,1496.1,1207.4,1496.1,1207.4,1496.1z M1195.9,1492.6L1195.9,1492.6L1195.9,1492.6z"/>
	</g>
	<g>
		<path class="st3" d="M1116,1609.5l24.8-32.6c2.7-3.5,5.3-7.1,7.7-10.6c1.5-2.1,2.9-4.2,4.2-6.2l1.3-1.9c0.9-1.4,1.8-2.8,2.7-4.2
			c0.4-0.6,0.7-1.1,1-1.7l0.2-0.4c0.8-1.3,1.6-2.6,2.4-4c0.4-0.7,0.8-1.3,1.2-2l1.1-2c0.4-0.6,0.7-1.3,1.1-1.9
			c0.4-0.7,0.7-1.3,1.1-1.9c0.4-0.7,0.7-1.3,1.1-2c0.9-1.7,1.8-3.5,3-5.8c0.6-1.2,1.2-2.5,1.8-3.7l0-0.1c0.3-0.6,0.6-1.2,0.8-1.8
			c0.6-1.3,1.1-2.5,1.7-3.7c0.2-0.4,0.4-0.8,0.5-1.2l0.3-0.6c0.1-0.3,0.3-0.6,0.4-1c0.4-0.9,0.8-1.8,1.1-2.7c0.2-0.5,0.4-1,0.6-1.5
			v-0.6l1-2c0.6-1.6,1.2-3.2,1.7-4.8c0.2-0.6,0.4-1.1,0.6-1.7c0.5-1.6,1.1-3.3,1.6-5.2c0.4-1.5,0.9-3.1,1.4-5
			c0.2-0.6,0.3-1.1,0.4-1.7c0.4-1.6,0.8-3.2,1.1-4.7c0-0.2,0.1-0.5,0.2-0.7c0.2-0.8,0.3-1.6,0.5-2.5l0-0.2c0.7-3.6,1.2-7.1,1.6-10.9
			c0.3-2.9,0.5-5.9,0.6-8.8c0-0.5,0-1,0-1.4c0.4-14.9-2.1-29.3-7.3-42.9c-0.5-1.4-1.1-2.7-1.7-4.2c-2.3-5.3-5-10.5-8.2-15.6
			c-0.7-1.2-1.5-2.4-2.3-3.6c-2.5-3.7-5.3-7.5-8.3-11.1c-0.3-0.4-0.6-0.7-0.8-1c-0.6-0.8-1.2-1.4-1.8-2.1c-0.6-0.7-1.2-1.3-1.8-2
			c-0.6-0.6-1.1-1.3-1.7-1.9c-0.3-0.3-0.6-0.7-0.9-1c-0.6-0.6-1.2-1.2-1.8-1.9c-19.2-19.5-38.6-29.1-38.8-29.2l-22.7-11.1l23-10.6
			c7.1-3.3,14.5-6.8,22-10.5c1.4-0.7,2.9-1.5,4.4-2.2l1.1-0.5c1.1-0.5,2.1-1.1,3.2-1.6c4.2-2.2,8.5-4.4,13.2-6.9
			c1.1-0.6,2.1-1.1,3.1-1.7l1.3-0.7c2.9-1.6,5.8-3.2,8.7-4.8c12.8-7.1,25.8-14.8,38.9-22.8c1.4-0.9,2.8-1.7,4.2-2.6l0.1-0.1
			c1-0.6,2-1.3,3.1-1.9l1.2-0.8c2.8-1.8,5.6-3.6,8.5-5.4c1.1-0.7,2.1-1.4,3.1-2l1.1-0.7c5.5-3.6,11.2-7.3,16.9-11.1l4.2-2.9
			c0.5-0.3,1-0.7,1.6-1.1l0.2-0.1c2.3-1.5,4.6-3.1,6.8-4.7l1.2-0.8c0.9-0.6,1.8-1.2,2.7-1.8c5.4-3.7,10.9-7.7,16.6-11.7
			c1.3-0.9,2.5-1.8,3.6-2.6l0.5-0.3c8.2-5.9,16.4-11.9,24.3-17.9c1.4-1,2.7-2,4-3c5.9-4.5,11.9-9.1,18.4-14.2c1.8-1.4,3.5-2.7,5.2-4
			c8.9-7,17.9-14.3,26.8-21.6c2.5-2.1,5-4.1,7.5-6.2c10.7-8.9,21.7-18.2,32.7-27.8l3.5-3.1c1.2-1,2.3-2,3.5-3c2.4-2.1,4.7-4.1,7-6.1
			l3.4-3c7.5-6.7,15.1-13.6,23.3-21.1l5.7-5.3c3.4-3.2,6.8-6.3,10.1-9.4c1-1,2.1-2,3.1-2.9c3-2.9,6.1-5.7,9.1-8.6
			c2.9-2.8,5.8-5.5,8.6-8.3l3.2-3.1c1.9-1.9,3.8-3.7,5.7-5.5c3.8-3.7,7.4-7.3,11-10.8l0.1-0.1c0.3-0.3,0.6-0.6,0.9-0.9l9.6-9.6
			c1.3-1.3,2.5-2.5,3.7-3.7l1.4-1.4c0.4-0.4,0.8-0.8,1.2-1.2c0.4-0.5,0.9-0.9,1.3-1.3c2.4-2.5,4.9-4.9,7.3-7.4
			c0.4-0.4,0.8-0.8,1.2-1.2c0.4-0.4,0.8-0.8,1.2-1.3c10.6-10.8,21.1-21.8,31.2-32.7l4.5-4.8l6.5,1.3c6.3,1.2,12.5,2.9,18.4,4.9
			c3.6,1.2,7.2,2.6,10.6,4.1l0.4,0.2l1.9,0.8c0.4,0.2,0.9,0.4,1.3,0.6c1,0.5,2,0.9,2.9,1.4l0.1,0.1c0.3,0.1,0.6,0.3,0.9,0.4
			c0.7,0.4,1.4,0.7,2.1,1.1c0.4,0.2,0.9,0.5,1.3,0.7c0.9,0.5,1.7,0.9,2.5,1.4c0.5,0.3,1.1,0.6,1.6,0.9c0.4,0.2,0.7,0.4,1,0.6
			c0.5,0.3,0.9,0.6,1.4,0.9l0.3,0.2c1.6,1,3.2,2.1,4.9,3.2c0.6,0.4,1.1,0.8,1.6,1.1c0.8,0.6,1.7,1.2,2.5,1.8
			c27.9,20.9,46,50.8,53.5,88.9c11.4,57.3-5.4,118.1-44.9,162.5l0,0c-4.7,5.3-9.7,10.7-14.8,16.1c-12.3,13-25.9,26.4-40.3,39.8
			c-61,56.6-141.2,117.5-238.4,180.8c-21.5,14-43.8,28.1-66.3,41.9c-23.4,14.4-47,28.4-70.2,41.8c-1.4,0.8-2.8,1.6-4.3,2.4l-0.1,0.1
			c-1.2,0.6-2.3,1.3-3.5,1.9c-2.6,1.4-5.3,2.8-8,4.2c-1.3,0.7-2.6,1.3-4,2c-2.9,1.4-5.6,2.7-8.2,3.8c-2.8,1.3-5.6,2.5-8.3,3.6
			c-1.4,0.6-2.8,1.1-4.2,1.7c-1.1,0.4-2.3,0.9-3.4,1.3c-1.8,0.7-3.6,1.4-5.4,2L1116,1609.5z M1199.2,1523.3
			c-0.4,1.1-0.9,2.3-1.4,3.4c-0.4,1.1-0.9,2.2-1.4,3.3l0,0.1c-0.1,0.2-0.2,0.5-0.3,0.7l-0.3,0.7c-0.2,0.5-0.4,0.9-0.6,1.4
			c-0.6,1.3-1.2,2.7-1.9,4.1c-0.3,0.6-0.6,1.2-0.9,1.9l-0.1,0.1c-0.7,1.4-1.3,2.8-2,4.2c-1.3,2.5-2.3,4.5-3.3,6.4
			c-0.4,0.7-0.8,1.4-1.2,2.1c-0.4,0.7-0.8,1.4-1.2,2.2c-0.4,0.7-0.8,1.4-1.2,2.1l-0.2,0.3c0.4-0.2,0.8-0.4,1.2-0.7l0.1-0.1
			c1.1-0.6,2.1-1.1,3.1-1.7l0.1-0.1c1.3-0.7,2.6-1.5,3.9-2.2c23-13.3,46.4-27.2,69.6-41.5c22.3-13.7,44.5-27.7,65.8-41.6
			c96.1-62.6,175.2-122.7,235.2-178.3c14.1-13,27.3-26.1,39.2-38.7c5-5.2,9.8-10.5,14.3-15.6l0,0c34.5-38.8,49.2-91.9,39.3-141.9
			c-6.4-32.1-21.3-57.1-44.3-74.3c-0.6-0.5-1.3-1-1.9-1.4l-0.2-0.2c-0.4-0.3-0.7-0.5-1.1-0.8l-0.1-0.1c-1.3-0.9-2.6-1.8-3.9-2.6
			l-0.3-0.2c-0.3-0.2-0.6-0.4-0.9-0.6l-1.1-0.7c-0.4-0.3-0.8-0.5-1.2-0.7c-0.7-0.4-1.3-0.8-2-1.1c-0.3-0.2-0.6-0.3-1-0.5l-0.3-0.2
			c-0.5-0.2-0.9-0.5-1.4-0.7c-0.4-0.2-0.7-0.4-1.1-0.6c-0.8-0.4-1.5-0.8-2.3-1.1c-0.9-0.4-1.8-0.8-2.7-1.2l-2.1-0.8l-0.1-0.1
			c-2.2-0.9-4.5-1.8-6.8-2.5c-2.9-1-5.9-1.9-8.9-2.6c-8.8,9.4-17.9,18.8-27,28.1c-0.4,0.4-0.8,0.8-1.2,1.2c-0.4,0.4-0.8,0.9-1.3,1.3
			c-2.4,2.4-4.8,4.9-7.3,7.5c-0.5,0.5-0.9,0.9-1.3,1.3c-0.4,0.4-0.9,0.9-1.3,1.3l-1.3,1.3c-1.3,1.3-2.5,2.6-3.8,3.8l-9.8,9.8
			c-0.2,0.2-0.5,0.5-0.7,0.7l-0.2,0.2c-3.6,3.6-7.3,7.2-11.1,10.9c-1.9,1.9-3.8,3.7-5.8,5.6l-3.2,3.1c-2.9,2.8-5.8,5.6-8.8,8.4
			c-3,2.9-6.1,5.8-9.2,8.7c-1.1,1-2.1,2-3.1,2.9c-3.4,3.2-6.8,6.4-10.3,9.6l-5.8,5.3c-8.3,7.6-16.1,14.6-23.6,21.4l-3.5,3.1
			c-2.3,2.1-4.7,4.1-7,6.2c-1.2,1-2.3,2.1-3.5,3.1l-3.5,3.1c-11.1,9.7-22.3,19.2-33.1,28.2c-2.5,2.1-5,4.2-7.6,6.3
			c-9,7.4-18.2,14.8-27.2,21.9c-1.7,1.4-3.5,2.8-5.3,4.1c-6.6,5.1-12.7,9.9-18.7,14.4c-1.3,1-2.7,2.1-4.1,3.1
			c-8,6-16.3,12.2-24.7,18.2l-0.5,0.3c-1.2,0.9-2.5,1.8-3.8,2.7c-5.7,4.1-11.3,8.1-16.8,11.8c-0.9,0.6-1.8,1.3-2.7,1.9l-1.2,0.8
			c-2.3,1.6-4.6,3.2-7,4.8c-0.6,0.4-1.2,0.8-1.8,1.2l-4.3,2.9c-5.8,3.9-11.6,7.7-17.2,11.4l-1.1,0.7c-1.1,0.7-2.1,1.4-3.2,2.1
			c-2.8,1.8-5.8,3.7-8.7,5.5l-1.2,0.8c-1,0.7-2.1,1.3-3.1,2c-1.5,0.9-2.9,1.8-4.4,2.7c-13.3,8.2-26.7,16.1-39.8,23.3
			c-3,1.7-6,3.3-8.9,4.9l-1.3,0.7c-1.1,0.6-2.2,1.2-3.2,1.7c-4.8,2.6-9.2,4.9-13.5,7.1c-1.1,0.6-2.2,1.1-3.3,1.7l-1.1,0.5
			c-1.5,0.8-3,1.5-4.5,2.3c-0.9,0.4-1.8,0.9-2.7,1.3c7.6,5.4,16.7,12.7,25.6,21.8c0.7,0.7,1.3,1.4,2,2.1l0.1,0.1
			c0.3,0.3,0.5,0.6,0.8,0.9l0.1,0.1c0.7,0.7,1.4,1.5,2.1,2.2c0.7,0.7,1.3,1.5,2,2.3c0.7,0.8,1.4,1.6,2.1,2.4c0.3,0.4,0.7,0.8,1,1.2
			c3.5,4.2,6.8,8.6,9.7,13.1c0.9,1.4,1.8,2.8,2.7,4.2c3.8,6.1,7.1,12.5,9.8,18.8c0.8,1.8,1.5,3.5,2.1,5.1
			c6.4,16.5,9.4,34.1,8.9,52.1c0,0.6,0,1.2-0.1,1.8c-0.1,3.4-0.4,7-0.8,10.5c-0.5,4.3-1.1,8.6-1.9,12.7c-0.2,1.1-0.4,2.1-0.6,3.2
			l-0.2,0.8c-0.4,1.8-0.8,3.6-1.3,5.5c-0.2,0.7-0.3,1.4-0.5,2c-0.6,2.2-1.1,4-1.6,5.7c-0.6,2.1-1.2,4-1.8,5.8
			c-0.2,0.6-0.5,1.4-0.7,2.1c-0.4,1.2-0.9,2.5-1.3,3.8v0.7L1199.2,1523.3z"/>
	</g>
	<g>
		<path class="st10" d="M891.8,1441.7c0,0-14.7,136.5-41.6,172.8c0,0,62.5-10.8,92.6-40.9c0,0,47,27.8,65.6,69.4
			c0,0,40.9-71.7,40.9-175.1C1049.2,1467.9,945.8,1467.5,891.8,1441.7z"/>
	</g>
	<g>
		<path class="st11" d="M1049.2,1467.9c0,103.4-40.9,175.1-40.9,175.1c-18.5-41.6-65.6-69.4-65.6-69.4
			c-30.1,30.1-92.5,40.9-92.5,40.9c7.9-10.6,14.8-29.8,20.5-51.7c41-7.6,73.3-34.7,73.3-34.7c32,13.3,56,36.7,56,36.7
			c6.7-25.9,12.8-69.2,16.5-98C1035.9,1467.9,1049.2,1467.9,1049.2,1467.9z"/>
	</g>
	<g class="st5">
		<path class="st3" d="M1049.2,1467.9c0,103.4-40.9,175.1-40.9,175.1c-18.5-41.6-65.6-69.4-65.6-69.4
			c-30.1,30.1-92.5,40.9-92.5,40.9c7.9-10.6,14.8-29.8,20.5-51.7c21.3-3.9,40.4-13.2,53.7-21.2c14.4-8.6,32.4-8.4,46.5,0.6
			c3.2,2.1,6.2,4.1,9,6.1c9.9,7.1,23.8,1.5,26-10.5c4.3-23.5,8.2-50.9,10.7-71.2C1035.9,1467.9,1049.2,1467.9,1049.2,1467.9z"/>
	</g>
	<g>
		<path class="st3" d="M1008.3,1655c-0.2,0-0.4,0-0.6,0c-4.5-0.2-8.5-3-10.4-7.1c-12.5-28.2-40.3-50-53.5-59.2
			c-33.8,27.4-89.1,37.2-91.6,37.6c-4.8,0.8-9.7-1.4-12.3-5.5c-2.6-4.2-2.3-9.5,0.6-13.4c20.5-27.6,35.4-129.8,39.3-166.9
			c0.4-3.9,2.7-7.3,6.1-9.2c3.4-1.9,7.5-2,11-0.3c50.9,24.4,151.2,25,152.2,25c6.6,0,12,5.4,12,12c0,105.3-40.7,178-42.5,181
			C1016.6,1652.7,1012.6,1655,1008.3,1655z M942.7,1561.6c2.1,0,4.2,0.5,6.1,1.7c1.7,1,35.7,21.3,58.4,53.9
			c10.9-25.9,27.8-75.4,29.7-137.5c-26.4-0.9-89.7-4.6-135.1-20.9c-1.8,13.7-4.7,34.9-8.9,57.8c-6.2,34.1-13,60.9-20.4,80
			c19.4-5.7,45.9-15.8,61.7-31.6C936.5,1562.8,939.6,1561.6,942.7,1561.6z"/>
	</g>
	<g>
		<path class="st12" d="M940.4,928c0,0-181.1,40.5-202.2-131.8c-4.5-37-0.3-74.6,12-109.8c19.4-55.2,65.4-135.3,171.1-153.7
			c137.6-24,270.5,65.2,300.8,201.6c12.3,55.2,11.7,124.9-12.6,212.4c0,0-28.4,124.1-21.5,186.5c0,0-111.1,94.1-273,53.2
			C915,1186.4,894.9,1002.8,940.4,928z"/>
	</g>
	<g class="st5">
		<path class="st6" d="M1043.1,579.9c31.8,23.8,60.3,64.6,65,134.6c4.6,69-42.5,130.7-110.2,144.7c-37.8,7.8-81.1,12.8-119.9,7.4
			c-61.4-8.5-106-63.1-102.8-124.9c2.9-56.6,23.7-140.6,116.3-179.3C941.7,541.3,999.5,547.2,1043.1,579.9z"/>
	</g>
	<g class="st5">
		<path class="st3" d="M1209.5,946.7c0,0-28.4,124.1-21.5,186.5c0,0-111.1,94.1-273,53.2c0,0-1.2-10.7-2.3-27.9
			c25.3,0.9,48.8-1.2,70.1-5.1c72.2-13.4,127.6-72.1,137-144.9c6.6-51.5,17.7-99.8,17.7-99.8c24.1-87,24.9-156.4,12.8-211.4
			c-14-64-50.6-117.8-99.9-154.3c83.9,28.7,151.2,99.3,171.6,191.4C1234.4,789.5,1233.8,859.2,1209.5,946.7z"/>
	</g>
	<g>
		<path class="st3" d="M996.1,1208.6c-26,0-54.2-3-84.1-10.6l-8.1-2l-0.9-8.3c-0.8-7-16.9-159.6,16.7-244.6
			c-30.8,2.9-86.1,2.3-130.6-29c-35.3-24.9-56.5-64.1-62.9-116.4c-4.7-38.5-0.4-78.3,12.6-115.3c13.1-37.2,31.8-69.1,55.7-94.8
			c33.1-35.6,75-58.1,124.7-66.7c69.6-12.1,140.4,3,199.4,42.5c59,39.5,99.9,99.3,115.2,168.2c14.1,63.4,9.8,136.7-12.7,217.9
			c-1.4,6.3-27.7,123.9-21.2,182.3l0.7,6.4l-4.9,4.1c-1.2,1-29.9,25.1-79.2,44C1086.8,1197.7,1045.5,1208.6,996.1,1208.6z
			 M926.1,1176.7c77,17.4,141.1,2.8,181.8-12.8c34.4-13.2,58-29.1,67.5-36.2c-4.6-65.2,21.2-178.8,22.3-183.8l0.1-0.5
			c21.5-77.5,25.7-147,12.5-206.6c-29.1-130.8-155.1-215.3-287-192.3c-97.4,17-141.8,88.7-161.9,145.9
			c-11.8,33.5-15.7,69.6-11.4,104.4c5.6,45.3,23.3,78.8,52.8,99.6c55.1,39,134.2,22.1,134.9,21.9l27.4-6.1l-14.6,24
			C913.1,996,922.9,1140.4,926.1,1176.7z"/>
	</g>
	<g>
		<path class="st3" d="M846.1,713.4L846.1,713.4c-20.1,0-36.4-16.3-36.4-36.4v-36.4c0-20.1,16.3-36.4,36.4-36.4h0
			c20.1,0,36.4,16.3,36.4,36.4V677C882.6,697.1,866.2,713.4,846.1,713.4z"/>
	</g>
	<g>
		<circle class="st6" cx="879.4" cy="615.4" r="28.1"/>
	</g>
	<g>
		<path class="st3" d="M1063.6,713.4L1063.6,713.4c20.1,0,36.4-16.3,36.4-36.4v-36.4c0-20.1-16.3-36.4-36.4-36.4h0
			c-20.1,0-36.4,16.3-36.4,36.4V677C1027.2,697.1,1043.5,713.4,1063.6,713.4z"/>
	</g>
	<g>
		<circle class="st6" cx="1030.4" cy="615.4" r="28.1"/>
	</g>
	<g>
		<g>
			<path class="st3" d="M804.5,815.1c-85.4,0-154.9-78-154.9-174c0-95.9,69.5-174,154.9-174s154.9,78,154.9,174
				C959.3,737.1,889.9,815.1,804.5,815.1z M804.5,491.2c-72.2,0-130.9,67.3-130.9,150c0,82.7,58.7,150,130.9,150
				s130.9-67.3,130.9-150C935.3,558.4,876.6,491.2,804.5,491.2z"/>
		</g>
		<g>
			<path class="st3" d="M1116.9,826.3c-85.4,0-154.9-78-154.9-174c0-95.9,69.5-174,154.9-174s154.9,78,154.9,174
				C1271.8,748.3,1202.3,826.3,1116.9,826.3z M1116.9,502.4c-72.2,0-130.9,67.3-130.9,150c0,82.7,58.7,150,130.9,150
				s130.9-67.3,130.9-150C1247.8,569.7,1189.1,502.4,1116.9,502.4z"/>
		</g>
		<g>
			<path class="st3" d="M974.1,660.4c-0.9,0-1.9-0.1-2.8-0.3c-12.5-3-19.5-0.6-19.8-0.5c0.2-0.1,0.3-0.1,0.3-0.1l-9-22.2
				c1.4-0.6,14.1-5.4,34.2-0.6c6.4,1.5,10.4,8,8.9,14.5C984.4,656.7,979.5,660.4,974.1,660.4z"/>
		</g>
	</g>
	<g>
		<path class="st3" d="M900.7,831.6c0,0,22,10.2,39.5-4.6l10,8.9C950.2,835.9,913.2,860.9,900.7,831.6z"/>
	</g>
	<g>
		<path class="st3" d="M940.6,798.5c0,0-3.3,33,32.2,46.1C972.8,844.5,918.2,849.9,940.6,798.5z"/>
	</g>
	<g>
		<path class="st3" d="M940.4,921c0,0,23.4-3.5,57.8-34.1c0,0-15,37.4-65.8,49.7L940.4,921z"/>
	</g>
	<g>
		<path class="st10" d="M1104.2,1178.1c-47.5,16.8-112.7,27.7-189.2,8.3c0,0-12.7-115.9,5-201c3-14.7,13.2-26.9,27.1-32.6
			c0.1-0.1,0.3-0.1,0.4-0.2c76.8-31.7,159.6,29.9,151.7,112.7C1095.5,1102.5,1094.1,1149.1,1104.2,1178.1z"/>
	</g>
	<g class="st2">
		<path class="st6" d="M1014.6,1008.3c13.6,38.2,24.1,111.2-76.6,142.2c0,0,5.2-76.8-0.8-125c-2.7-21.7,12.7-41.8,34.5-44.1
			c0.6-0.1,1.3-0.1,1.9-0.2C991.8,979.8,1008.5,991.1,1014.6,1008.3z"/>
	</g>
	<g class="st5">
		<path class="st3" d="M1104.2,1178.1c-47.4,16.8-112.6,27.7-189.2,8.3c0,0-1.1-10.4-2.3-27.3c8.2,1.5,16.3,2.7,24.3,3.5
			c56.8,6.1,108-34.5,115.4-91.2c1.4-10.5,3-20.8,4.8-30.5c5.9-32.3-2.6-62.6-20-85.8c39.2,19.1,66.6,60.8,61.9,110.1
			C1095.5,1102.5,1094.1,1149.1,1104.2,1178.1z"/>
	</g>
	<g>
		<path class="st3" d="M996.7,1208.8c-28,0-56.3-3.6-84.7-10.7l-8.1-2l-0.9-8.3c-0.5-4.8-12.7-118.8,5.1-204.8
			c3.8-18.6,16.6-34,34.2-41.3l0.4-0.2c39.9-16.5,84.4-11,119.1,14.7c34.9,25.8,53.2,67,49.1,110.2c-4.6,48.7-3.1,85.9,4.5,107.7
			l3.9,11.3l-11.2,4C1071.7,1202.3,1034.4,1208.8,996.7,1208.8z M926.1,1176.7c55.4,12.5,110.3,10.4,163.4-6.4
			c-5.9-25.2-6.7-60.9-2.4-106.2c3.3-34.8-11.4-67.9-39.5-88.6c-27.9-20.6-63.6-25-95.7-11.8l-0.4,0.2c-10.2,4.2-17.7,13.2-19.9,24
			C917.3,1057.2,923.7,1148.9,926.1,1176.7z"/>
	</g>
	<g>
		<path class="st3" d="M1019.2,1066.6c-21.4,0-40-2.7-54.7-6c-34.4-7.7-55.5-20-56.4-20.5c-4.8-2.8-6.3-8.9-3.5-13.7
			c2.8-4.7,8.9-6.3,13.7-3.5c0.4,0.2,19.9,11.5,51.3,18.4c29,6.4,74.3,10.2,126.1-7.5c5.2-1.8,10.9,1,12.7,6.2
			c1.8,5.2-1,10.9-6.2,12.7C1072,1063,1043.8,1066.6,1019.2,1066.6z"/>
	</g>
	<g>
		<path class="st4" d="M1019.4,957.7c17.2-23.4,61.6-72.2,98.5-10.5c4.7,7.9,6.1,17.4,3.2,26.1c-1.2,3.5-3,7-6,9.9
			c0,0,8.8,4.5,11.9,17.9c5.4,23.7-14,45.5-38.2,44.6c-18.1-0.7-41.9-10-68.2-42c-2.9-3.5-5.1-7.5-6.5-11.8c0-0.1-0.1-0.3-0.1-0.4
			C1010.1,980,1012.3,967.5,1019.4,957.7z"/>
	</g>
	<g class="st5">
		<path class="st3" d="M1088.7,1045.6c-18.1-0.7-41.9-10-68.2-42c-2.9-3.5-5.1-7.5-6.5-11.8c0-0.1-0.1-0.3-0.1-0.4
			c-2.5-7.7-2.3-15.8,0.2-23.3c0.4,0.5,0.8,1,1.2,1.5c26.3,32,50.2,41.3,68.2,42c16.9,0.7,31.5-9.8,36.9-24.1
			c2.5,2.8,5.3,7.2,6.7,13.6C1132.3,1024.8,1113,1046.6,1088.7,1045.6z"/>
	</g>
	<g>
		<path class="st4" d="M985,968.7c-17.2-23.4-61.6-72.2-98.5-10.5c-4.7,7.9-6.1,17.4-3.2,26.1c1.2,3.5,3,7,6,9.9
			c0,0-8.8,4.5-11.9,17.9c-5.4,23.7,14,45.5,38.2,44.6c18.1-0.7,41.9-10,68.2-42c2.9-3.5,5.1-7.5,6.5-11.8c0-0.1,0.1-0.3,0.1-0.4
			C994.4,991,992.1,978.5,985,968.7z"/>
	</g>
	<g class="st5">
		<path class="st3" d="M990.6,1002.5c0,0.1-0.1,0.3-0.1,0.4c-1.4,4.3-3.6,8.3-6.5,11.8c-26.3,32-50.2,41.3-68.2,42
			c-24.3,0.9-43.6-20.9-38.3-44.6c0.8-3.4,1.9-6.2,3.2-8.5c6.4,12.3,19.8,20.7,35.1,20.1c18.1-0.7,41.9-10,68.2-42
			c1.8-2.2,3.3-4.6,4.6-7.1C992.8,983.2,993.7,993.2,990.6,1002.5z"/>
	</g>
	<g>
		<path class="st3" d="M1011,1137.7c-11.6,0-23.7-0.9-36.2-2.8c-38.1-5.6-66.9-17.7-68.1-18.2c-5.1-2.2-7.5-8-5.3-13.1
			c2.2-5.1,8-7.5,13.1-5.3l0,0c1.1,0.5,109.1,45.1,175.2-2.9c4.5-3.2,10.7-2.3,14,2.2s2.3,10.7-2.2,14
			C1077.6,1128.8,1046.8,1137.7,1011,1137.7z"/>
	</g>
	<g>
		<path class="st3" d="M915,1186.7c0,0-22.6-3.8-41.9-14.3c-14.3-7.8-12.7-28.8,2.6-34.3c8.7-3.1,20.2-5.9,35.5-7.3
			C911.2,1130.8,911.9,1173.1,915,1186.7z"/>
	</g>
	<g>
		<path class="st3" d="M1190.3,1134.7c0,0,27.8-14.3,44.7-31.6c9.7-9.9,3.1-26.4-10.7-27.2c-10-0.5-22,0-34,3.6
			C1190.3,1079.5,1188.3,1112.9,1190.3,1134.7z"/>
	</g>
	<g>
		<path class="st3" d="M930.6,1201.2l-17.6-2.9c-1-0.2-24.8-4.2-45.7-15.6c-10.8-5.9-16.9-17.2-16-29.5c0.9-12.2,8.7-22.4,20.3-26.6
			c10.9-3.9,23.8-6.6,38.5-7.9l12.9-1.2l0.2,12.9c0.2,11.4,1.2,43.3,3.4,53.5L930.6,1201.2z M899.6,1144.1c-7.4,1.2-14,2.9-19.8,5
			c-3.7,1.3-4.4,4.6-4.5,5.9c-0.1,1.3,0,4.7,3.6,6.6c7.4,4,15.3,7,22.1,9.1C900.2,1161.7,899.8,1151.8,899.6,1144.1z"/>
	</g>
	<g>
		<path class="st3" d="M1180,1153.5l-1.6-17.7c-2.1-22.5-0.1-55.6,0-57l0.5-8.4l8-2.4c11.6-3.5,24.4-4.8,38.1-4.1
			c11.2,0.6,20.7,7.5,24.7,17.9c4,10.4,1.7,21.7-6.1,29.7c-18.1,18.5-46.6,33.2-47.8,33.9L1180,1153.5z M1184.8,1124L1184.8,1124
			L1184.8,1124z M1201.9,1089.1c-0.3,6.5-0.5,15.8-0.4,25.2c8.2-5.3,17.8-12.2,25-19.6c1.5-1.5,1.3-3.1,0.9-4.2
			c-0.4-0.9-1.3-2.5-3.6-2.6C1215.9,1087.5,1208.6,1087.9,1201.9,1089.1z"/>
	</g>
	<g>
		<path class="st3" d="M1090.2,1053.2c-0.6,0-1.2,0-1.8,0c-25.4-1-50.2-16-73.7-44.7c-3.5-4.2-6.1-9-7.8-14.2l-0.1-0.5
			c-4.4-13.6-1.9-28.7,6.7-40.5l0,0c12.1-16.4,36.1-43.6,63.6-43.6c0.6,0,1.3,0,1.9,0c17.3,0.8,32.5,12.1,45.4,33.6
			c6,10,7.4,21.8,3.8,32.3c-0.8,2.2-1.7,4.3-2.8,6.3c3.4,3.6,7,9.2,8.9,17.5c3,13.2-0.3,26.9-9.1,37.4
			C1116.5,1047.3,1103.8,1053.2,1090.2,1053.2z M1025.5,962.2c-5.8,7.9-7.5,18-4.5,27l0.1,0.3c1.2,3.5,2.9,6.6,5.2,9.4
			c20.7,25.2,41.8,38.4,62.7,39.2c9.6,0.4,18.6-3.6,24.7-10.9c5.7-6.9,7.9-15.8,6-24.5c-2-9-7.3-12.5-8-12.9l-9.7-4.5l7.9-7.5
			c1.8-1.8,3.2-4.2,4.2-7c2.1-6.4,1.2-13.6-2.5-19.8c-10.1-16.9-21.3-25.8-33.2-26.3C1056.2,923.7,1034,950.6,1025.5,962.2
			L1025.5,962.2z"/>
	</g>
	<g>
		<path class="st3" d="M914.2,1064.2c-13.6,0-26.3-5.9-35-16.4c-8.7-10.5-12-24.1-9.1-37.4c1.9-8.2,5.6-13.9,8.9-17.5
			c-1.1-1.9-2-4-2.8-6.3c-3.5-10.5-2.1-22.3,3.8-32.3c12.8-21.5,28.1-32.8,45.4-33.6c28.3-1.3,53.2,26.7,65.6,43.5
			c8.6,11.8,11.1,26.9,6.7,40.5l-0.1,0.4c-1.7,5.2-4.4,9.9-7.8,14.2c-23.6,28.7-48.4,43.7-73.7,44.7
			C915.4,1064.2,914.8,1064.2,914.2,1064.2z M892.8,1000.8c-0.7,0.4-6,3.9-8,12.9c-2,8.7,0.2,17.6,6,24.5
			c6.1,7.3,15.1,11.3,24.7,10.9c20.9-0.8,42-14,62.7-39.2c2.3-2.8,4.1-6,5.2-9.4l0.1-0.3c3-9,1.3-19.1-4.5-27v0
			c-8.5-11.6-30.7-38.5-52.8-37.4c-11.9,0.6-23.1,9.4-33.2,26.3c-3.7,6.2-4.6,13.5-2.5,19.8c1,2.8,2.4,5.2,4.2,7l7.6,7.6
			L892.8,1000.8z"/>
	</g>
	<g>
		<path class="st4" d="M994,960.8c0,0-19.8-7.3-26,12c-1,3.1-1.4,6.3-1.3,9.5c0.2,9.7,3.4,31.3,28.7,30.7c0,0,0.2,0.1,0.6,0.2
			c15,4.1,30-6.9,30.7-22.5C1027.3,974.3,1023.9,949.1,994,960.8z"/>
	</g>
	<g class="st5">
		<path class="st3" d="M1026.6,990.7c-0.7,15.6-15.6,26.6-30.7,22.5c-0.4-0.1-0.6-0.2-0.6-0.2c-25.3,0.6-28.5-21-28.7-30.7
			c0-3,0.3-6.1,1.2-9c3.4,8.2,10.6,15.8,25.8,15.4c0,0,0.2,0.1,0.6,0.2c13.7,3.7,27.3-5,30.1-18.4
			C1026.6,976.8,1026.9,984.4,1026.6,990.7z"/>
	</g>
	<g>
		<path class="st3" d="M1002.4,1021.6c-2.7,0-5.4-0.3-8-1c0,0-0.1,0-0.1,0c-9.9,0-18-2.9-24-8.8c-9.3-9-10.9-22.2-11.1-29.3
			c-0.1-4.2,0.5-8.2,1.7-12c3-9.5,8.8-13.9,13.1-16c7.6-3.7,15.6-2.6,19.8-1.6c11.5-4,21-3.4,28.2,1.7c8.8,6.3,12.9,18.6,12.2,36.4
			c-0.4,9.8-5.2,18.7-13.1,24.4C1015.5,1019.5,1009,1021.6,1002.4,1021.6z M996.4,1005.5l1.2,0.4c0,0,0.1,0,0.3,0.1
			c4.9,1.3,10.1,0.4,14.3-2.7c4.2-3.1,6.7-7.8,6.9-12.9c0.5-11.9-1.7-20.5-5.9-23.5c-4.1-2.9-11.2-1.1-16.5,0.9l-2.7,1l-2.6-1
			c-1.8-0.6-7.1-1.8-11,0.2c-2.4,1.2-4.1,3.5-5.3,7.1c-0.7,2.1-1,4.5-1,7.1c0.1,4.8,1,13.6,6.4,18.8c3.4,3.2,8.1,4.7,14.6,4.6
			L996.4,1005.5z"/>
	</g>
	<g>
		<path class="st3" d="M482.2,1029.4c-2.4,0-4.9-0.5-7.2-1.4c-33.9-14.1-58-41.8-71-60.1H269.8c-48.9,0-88.7-39.8-88.7-88.7v-135
			c0-48.9,39.8-88.7,88.7-88.7h241.4c48.9,0,88.7,39.8,88.7,88.7v135c0,48.9-39.8,88.7-88.7,88.7h-23.5c1.1,13.8,6.2,25.2,10.8,33
			c4.2,7,3.4,15.8-2,22C492.8,1027.1,487.6,1029.4,482.2,1029.4z M269.8,679.3c-35.7,0-64.7,29-64.7,64.7v135
			c0,35.7,29,64.7,64.7,64.7h146.9l3.6,5.3c8.8,13.2,26.1,35.5,50.6,49.9c-4.9-11.9-8.5-27-7-44.3l1-11h46.5
			c35.7,0,64.7-29,64.7-64.7v-135c0-35.7-29-64.7-64.7-64.7H269.8z"/>
	</g>
	<g>
		<path class="st3" d="M390.5,910l-4.4-1.8c-53.2-21.2-88.1-50.9-103.7-88.2c-14.3-34.2-5.4-71.2,22.2-91.9
			c12.6-9.5,27.4-14.3,43-13.9c14.8,0.3,29.6,5.5,43.1,14.9c29-18.4,62.9-17.9,87.8,1.8c26.2,20.7,34.1,55.6,20.1,89.1
			c-15.6,37.3-50.5,67-103.7,88.2L390.5,910z M346.1,738.2c-10.7,0-20.1,3.7-27.1,9c-15.5,11.7-26,35.9-14.5,63.5
			c12.6,30.1,41.5,54.8,86,73.4c44.5-18.6,73.4-43.2,86-73.4c11.8-28.2,1.1-50-12.8-61c-14.1-11.1-38.2-16.4-63.8,2.1
			c-1.7,1.3-2.9,2-3.2,2.1l-5.6,3.4l-5.9-2.9c-0.6-0.3-2.3-1.2-4.5-3C368.6,741.9,356.7,738.2,346.1,738.2z M396.2,733.2
			C396.2,733.2,396.2,733.2,396.2,733.2C396.2,733.2,396.2,733.2,396.2,733.2z"/>
	</g>
	<g>
		<path class="st3" d="M1246.9,1544.8l11.6-28.4c24.2-59.1,23.1-114.4-3.5-164.5c-19.8-37.4-46.7-57.4-46.9-57.6l-12-8.8l12.6-7.8
			c1.4-0.9,2.8-1.7,4.2-2.6c1.1-0.7,2.1-1.3,3.1-2l1.2-0.8c2.8-1.8,5.7-3.6,8.5-5.4c1.1-0.7,2.1-1.4,3.1-2l1.1-0.7
			c5.6-3.6,11.2-7.3,16.9-11.1l4.2-2.9c0.5-0.3,1-0.7,1.6-1.1l5.7-4l5.7,4c81.1,56.1,84.6,168.2,79.5,230.1l-0.4,4.9l-4.1,2.7
			c-21.5,14-43.8,28.1-66.2,41.9L1246.9,1544.8z M1230.9,1287.6c10.9,10.2,27.9,28.7,41.9,55c12.9,24.3,20.5,50.4,22.5,77.3
			c1.9,24.9-1,50.7-8.6,76.9c12.7-8,25.3-16,37.6-24c4.1-56.9-0.2-152.9-65.8-203.1l-0.2,0.1c-5.8,3.9-11.5,7.7-17.2,11.3l-1.1,0.7
			c-1.1,0.7-2.1,1.4-3.2,2.1C1234.7,1285.1,1232.8,1286.4,1230.9,1287.6z M1333.8,1478.5L1333.8,1478.5L1333.8,1478.5z"/>
	</g>
	<g>
		<path class="st3" d="M1557,1325.1l3.7-27.6c9.6-71.9-0.7-132.7-29.8-175.9c-21.8-32.4-46.9-43.9-47.2-44.1l-13.5-6l13.8-13.4
			c1.9-1.9,3.8-3.7,5.7-5.5c3.8-3.7,7.4-7.3,11-10.8l0.1-0.1c0.3-0.3,0.7-0.7,1-1l4.2-4.1l5.6,1.7c104.7,31.8,113,152.7,108.6,221.9
			l-0.2,3.6l-2.5,2.6c-12.3,13-25.8,26.3-40.2,39.7L1557,1325.1z M1504.3,1066.4c10.9,7.3,27.3,20.7,42.4,42.8
			c14.5,21.2,25,46.2,31.1,74.1c5.9,27.1,7.8,57.1,5.5,89.6c6-5.9,11.8-11.7,17.3-17.5c3.4-62.5-4.5-166.2-89.1-196.1
			C1509.1,1061.7,1506.7,1064,1504.3,1066.4z M1610.4,1259.6L1610.4,1259.6L1610.4,1259.6z"/>
	</g>
	<g class="st5">
		<path class="st6" d="M1230,1427c0,0,392-227.3,381.3-370.3c0,0,1.3-4.7-3.3-12c-11.3-18.2-37.4-19.6-51.1-3
			c-42.7,51.8-156.7,180.6-294.7,261c-29.2,17-44.1,51.2-35.6,83.9C1229.7,1398.4,1231.3,1412,1230,1427z"/>
	</g>
	<g class="st5">
		<path class="st6" d="M917.5,1476.5c0,0-1,39-12,56.5c0,0,31.2-9.1,44.2-22c0,0,12.8,3,24.5,9.4c8.3,4.5,18.5-0.5,19.9-9.8
			c0.2-1.7,0.5-3.5,0.6-5.2c0.9-9.2-6.1-17.3-15.4-17.7C960.6,1486.8,930,1484.3,917.5,1476.5z"/>
	</g>
	<g>
		<g>
			<path class="st10" d="M1549.6,491.7c0,0-8.8,94.6-82.8,99.3c0,0,82.8,19.6,82.8,148c0-128.5,82.8-148,82.8-148
				C1558.4,586.3,1549.6,491.7,1549.6,491.7z"/>
		</g>
		<g class="st5">
			<path class="st3" d="M1632.4,591c0,0-82.8,19.6-82.8,148c0-39.6-7.9-68.9-18.8-90.4c11.9-44.3,36.1-67.1,53.9-78.3
				C1596.4,581.5,1611.9,589.7,1632.4,591z"/>
		</g>
		<g>
			<path class="st3" d="M1549.6,753.4c-7.9,0-14.3-6.4-14.3-14.3c0-115.8-71.1-133.9-71.8-134.1c-6.9-1.6-11.6-8.1-11-15.1
				c0.6-7.1,6.3-12.6,13.4-13.1c61.1-3.9,69.4-85.5,69.5-86.3c0.7-7.4,6.9-13,14.3-13c7.4,0,13.5,5.6,14.2,13l0,0
				c0,0.2,2.2,22.1,12.7,43.8c12.8,26.7,31.9,41,56.8,42.6c7.1,0.5,12.9,6.1,13.5,13.2c0.5,7.1-4.1,13.5-11,15
				c-1.1,0.3-18.6,5.2-35.8,23.2c-23.6,24.7-36.1,63.1-36.1,110.9C1563.9,746.9,1557.5,753.4,1549.6,753.4z M1504.8,594.9
				c4.4,3.3,9,7.3,13.5,11.9c10.7,10.8,22.4,26.6,31.2,49c8.9-22.4,20.6-38.2,31.2-49c4.5-4.6,9.1-8.5,13.5-11.9
				c-18.3-9.8-33.3-26.4-44-49.2c-0.2-0.5-0.5-1-0.7-1.5c-0.2,0.5-0.5,1-0.7,1.5C1538.1,568.5,1523.1,585.1,1504.8,594.9z"/>
		</g>
	</g>
	<g>
		<path class="st3" d="M360.4,1260.6c-6.6,0-12-5.4-12-12c0-66.1-38.7-77.7-41.2-78.4c-5.8-1.3-9.7-6.6-9.3-12.6
			c0.4-6,5.4-10.7,11.3-11.1c14-0.9,24.4-8.7,31.7-23.9c6.1-12.7,7.4-25.5,7.5-25.7c0.6-6.2,5.8-10.8,12-10.8
			c6.2,0,11.3,4.7,11.9,10.8l0,0c0,0.1,1.3,13,7.5,25.7c7.3,15.2,17.7,23,31.7,23.9c6,0.4,10.9,5.1,11.3,11.1
			c0.4,6-3.4,11.3-9.3,12.6c-2.5,0.7-41.2,12.3-41.2,78.4C372.4,1255.2,367.1,1260.6,360.4,1260.6z M339,1161.4
			c1.6,1.4,3.2,2.9,4.8,4.5c5.6,5.6,11.6,13.4,16.7,23.9c5.1-10.5,11.1-18.3,16.7-23.9c1.6-1.6,3.2-3.1,4.8-4.5
			c-8.5-5.6-15.7-13.6-21.4-24C354.7,1147.8,347.5,1155.8,339,1161.4z"/>
	</g>
	<g>
		<g>
			<path class="st10" d="M1697.3,1379.6c0,0-6.9,74.1-64.9,77.8c0,0,64.9,15.3,64.9,116c0-100.7,64.9-116,64.9-116
				C1704.2,1453.7,1697.3,1379.6,1697.3,1379.6z"/>
		</g>
		<g class="st5">
			<path class="st3" d="M1762.2,1457.4c0,0-64.9,15.3-64.9,116c0-29.5-5.6-51.6-13.4-68.2c9.1-35.5,28.2-53.8,42.3-62.8
				C1735.2,1450.6,1746.9,1456.4,1762.2,1457.4z"/>
		</g>
		<g>
			<path class="st3" d="M1697.3,1585.4c-6.6,0-12-5.4-12-12c0-90.1-55.1-104.2-55.7-104.3c-5.8-1.4-9.7-6.8-9.2-12.7
				c0.5-5.9,5.3-10.6,11.2-11c19.2-1.2,34-12.3,43.9-32.9c8.1-16.9,9.8-33.9,9.9-34.1c0.6-6.1,5.8-10.8,11.9-10.8c0,0,0,0,0,0
				c6.2,0,11.3,4.7,11.9,10.9c0,0.2,1.8,17.2,9.9,34.1c9.9,20.6,24.7,31.7,43.9,32.9c6,0.4,10.9,5.1,11.3,11
				c0.5,6-3.4,11.3-9.3,12.6c-3,0.8-55.7,15.9-55.7,104.3C1709.3,1580,1703.9,1585.4,1697.3,1585.4z M1663.7,1460.6
				c3.2,2.5,6.4,5.3,9.7,8.6c8.1,8.2,17,20.1,23.9,36.8c6.9-16.7,15.8-28.6,23.9-36.8c3.3-3.3,6.5-6.2,9.7-8.6
				c-13.9-7.8-25.3-20.6-33.6-38C1689,1440,1677.6,1452.8,1663.7,1460.6z"/>
		</g>
	</g>
	<g class="st13">
		<ellipse class="st3" cx="1135.7" cy="1122.4" rx="11.8" ry="8.3"/>
	</g>
	<g class="st13">
		<ellipse class="st3" cx="829" cy="872.2" rx="11.8" ry="8.3"/>
	</g>
	<g class="st13">
		<ellipse class="st3" cx="1157.6" cy="1107" rx="8.9" ry="7"/>
	</g>
	<g class="st13">
		<ellipse class="st3" cx="846.1" cy="889" rx="8.9" ry="7"/>
	</g>
	<g class="st13">
		<ellipse class="st3" cx="1133.5" cy="1100" rx="7" ry="5.6"/>
	</g>
	<g class="st13">
		<ellipse class="st3" cx="1148" cy="723" rx="12.5" ry="9.5"/>
	</g>
	<g class="st13">
		<ellipse class="st3" cx="1170.1" cy="746" rx="13.3" ry="10.3"/>
	</g>
	<g class="st13">
		<ellipse class="st3" cx="1418.3" cy="1032" rx="24.7" ry="16"/>
	</g>
	<g class="st13">
		<ellipse class="st3" cx="1379.5" cy="1003.3" rx="12.8" ry="8.7"/>
	</g>
	<g class="st13">
		<ellipse class="st3" cx="1368.7" cy="1035.2" rx="14" ry="9.5"/>
	</g>
	<g class="st13">
		<ellipse class="st3" cx="1016" cy="1256.5" rx="22" ry="16.5"/>
	</g>
	<g class="st13">
		<ellipse class="st3" cx="1390.3" cy="1387.5" rx="22" ry="16.5"/>
	</g>
	<g class="st13">
		<ellipse class="st3" cx="1066" cy="1283.8" rx="16.3" ry="13.2"/>
	</g>
	<g class="st13">
		<ellipse class="st3" cx="604.5" cy="1460.6" rx="20.5" ry="14.6"/>
	</g>
	<g class="st13">
		<ellipse class="st3" cx="670.9" cy="1460.6" rx="25" ry="20.3"/>
	</g>
	<g class="st13">
		<ellipse class="st3" cx="634.3" cy="1417.7" rx="19" ry="14.4"/>
	</g>
	<g class="st13">
		<ellipse class="st3" cx="1424.8" cy="1355.6" rx="17.8" ry="13.6"/>
	</g>
	<g class="st13">
		<ellipse class="st3" cx="1378" cy="1349.1" rx="15.6" ry="12.1"/>
	</g>
	<g class="st5">
		<path class="st6" d="M1039.1,957.8c0,0,35.5-44.7,56.3-13.7c0,0,17.9,20.5-5.1,37.4c0,0,0.4,0.3,1,0.9c6.5,6.1,3,16.9-5.8,18.1
			c-3,0.4-6.4,0.5-10.1,0c-16.9-2.3-29.9-15.9-32.5-32.8C1042.2,963.6,1041.1,959.8,1039.1,957.8z"/>
	</g>
	<g class="st5">
		<path class="st6" d="M955.7,969.4c0,0-32.2-40.5-51.1-12.5c0,0-16.2,18.6,4.7,33.9c0,0-0.3,0.3-0.9,0.8
			c-5.9,5.5-2.7,15.3,5.3,16.4c2.7,0.4,5.8,0.5,9.2,0c15.3-2.1,27.1-14.4,29.5-29.7C952.9,974.7,953.9,971.2,955.7,969.4z"/>
	</g>
</g>
</svg>
